<svg xmlns="http://www.w3.org/2000/svg" viewBox="0 0 130 30" width="130" height="30" role="img" aria-label="clanker">
<path d="M13.14 12.87A8 8 0 1 0 13.14 25.13M20.14 1V27M43.14 19A8 8 0 1 0 27.14 19A8 8 0 1 0 43.14 19M43.14 11V27M50.14 11V27M50.14 19A8 8 0 0 1 66.14 19V27M73.14 1V27M85.64 11L73.14 21.5M78.14 17.5L86.14 27M93.14 19H109.14A8 8 0 1 0 106.8 24.66M116.14 11V27M116.14 18.5A7.5 7.5 0 0 1 123.64 11H126.14" transform="translate(1.75 1)" fill="none" stroke="#1b1c18" stroke-width="3.5" stroke-linecap="square"/>
</svg>
